<svg xmlns="http://www.w3.org/2000/svg" data-name="Layer 1" width="1024.24078" height="579.41864" viewBox="0 0 1024.24078 579.41864" xmlns:xlink="http://www.w3.org/1999/xlink"><path d="M763.17692,408.11222H406.76748a13.6248,13.6248,0,0,1-13.609-13.609V292.14655a13.6248,13.6248,0,0,1,13.609-13.609H793.34193a13.62481,13.62481,0,0,1,13.609,13.609v72.19164A43.82337,43.82337,0,0,1,763.17692,408.11222Z" transform="translate(-87.87961 -160.29068)" fill="#f2f2f2"/><path d="M640.23631,314.94054H477.48309a3.50978,3.50978,0,1,1,0-7.01956H640.23631a3.50978,3.50978,0,0,1,0,7.01956Z" transform="translate(-87.87961 -160.29068)" fill="#fff"/><path d="M722.62485,329.29563H477.48309a3.50978,3.50978,0,1,1,0-7.01956H722.62485a3.50978,3.50978,0,0,1,0,7.01956Z" transform="translate(-87.87961 -160.29068)" fill="#fff"/><path d="M722.62485,345.77334H477.48309a3.50978,3.50978,0,1,1,0-7.01956H722.62485a3.50978,3.50978,0,0,1,0,7.01956Z" transform="translate(-87.87961 -160.29068)" fill="#fff"/><path d="M722.62485,362.25105H477.48309a3.50978,3.50978,0,1,1,0-7.01956H722.62485a3.50978,3.50978,0,0,1,0,7.01956Z" transform="translate(-87.87961 -160.29068)" fill="#fff"/><path d="M722.62485,378.72876H477.48309a3.50978,3.50978,0,1,1,0-7.01956H722.62485a3.50978,3.50978,0,0,1,0,7.01956Z" transform="translate(-87.87961 -160.29068)" fill="#fff"/><path d="M794.1084,390.76617H769.51157a5.79732,5.79732,0,0,1-5.27117-3.39c-4.744-10.40971-3.46008-20.678.28922-30.8884a5.73908,5.73908,0,0,1,5.40149-3.72158h23.89871a5.77093,5.77093,0,0,1,5.311,8.03985c-2.95979,6.89263-3.048,14.18449.29647,21.9536A5.766,5.766,0,0,1,794.1084,390.76617Z" transform="translate(-87.87961 -160.29068)" fill="#fff"/><path d="M794.1084,391.26617H769.51172a6.30828,6.30828,0,0,1-5.72656-3.68261c-4.23389-9.29151-4.14649-19.22706.27539-31.26807a6.252,6.252,0,0,1,5.8706-4.04932h23.89844a6.27068,6.27068,0,0,1,5.77051,8.73731c-2.977,6.9331-2.877,14.18652.29687,21.55859a6.18889,6.18889,0,0,1-.52588,5.86426A6.28441,6.28441,0,0,1,794.1084,391.26617Zm-24.17725-38a5.24866,5.24866,0,0,0-4.93213,3.394c-4.32519,11.77783-4.42138,21.47216-.30371,30.5083a5.30437,5.30437,0,0,0,4.81641,3.09765H794.1084a5.2884,5.2884,0,0,0,4.42773-2.38965,5.12354,5.12354,0,0,0,.4419-4.91894c-3.28614-7.63428-3.38623-15.15332-.29688-22.34863a5.2706,5.2706,0,0,0-4.85156-7.34278Z" transform="translate(-87.87961 -160.29068)" fill="#ccc"/><path d="M789,366.26617H772a2.5,2.5,0,0,1,0-5h17a2.5,2.5,0,0,1,0,5Z" transform="translate(-87.87961 -160.29068)" fill="#e6e6e6"/><path d="M789,375.76617H772a2.5,2.5,0,0,1,0-5h17a2.5,2.5,0,0,1,0,5Z" transform="translate(-87.87961 -160.29068)" fill="#e6e6e6"/><path d="M789,385.26617H772a2.5,2.5,0,0,1,0-5h17a2.5,2.5,0,0,1,0,5Z" transform="translate(-87.87961 -160.29068)" fill="#e6e6e6"/><circle cx="708.6434" cy="117.89922" r="27.78" fill="#64a881"/><path d="M792.73324,292.6481a3.08923,3.08923,0,0,1-2.47186-1.23631l-7.57881-10.10525a3.09007,3.09007,0,1,1,4.94423-3.70792l4.95832,6.61058,12.73479-19.10194a3.0902,3.0902,0,1,1,5.14241,3.42827L795.3047,291.272a3.09143,3.09143,0,0,1-2.48545,1.37513C792.79058,292.6476,792.76191,292.6481,792.73324,292.6481Z" transform="translate(-87.87961 -160.29068)" fill="#fff"/><path d="M974.83089,627.61862H964.41566a3.75037,3.75037,0,0,0-3.75037,3.75037v0a3.75037,3.75037,0,0,1-3.75037,3.75037H922.19178a3.75037,3.75037,0,0,1-3.75037-3.75037l-.68657-3.80187.04463.05149-.04463-.05149-6.2941-8.02425a2.18447,2.18447,0,0,0-1.749-.84963H897.9079a2.22542,2.22542,0,0,0-2.22276,2.22276l-.24373,6.65112H890.979a7.1371,7.1371,0,0,0-7.1371,7.1371V681.188a6.3336,6.3336,0,0,0,6.33359,6.33359h84.65545a6.33967,6.33967,0,0,0,6.33186-6.33359V633.95048A6.33186,6.33186,0,0,0,974.83089,627.61862Z" transform="translate(-87.87961 -160.29068)" fill="#f2f2f2"/><path d="M917.75828,627.39549H895.68514v-6.65112a2.22542,2.22542,0,0,1,2.22276-2.22276h11.80381a2.18447,2.18447,0,0,1,1.749.84963Z" transform="translate(-87.87961 -160.29068)" fill="#e6e6e6"/><path d="M929.06024,682.40668H892.20385a4.40547,4.40547,0,0,1-4.4005-4.4005V667.92659a4.40548,4.40548,0,0,1,4.4005-4.4005h44.23631a4.40548,4.40548,0,0,1,4.4005,4.4005v2.69967A11.79378,11.79378,0,0,1,929.06024,682.40668Z" transform="translate(-87.87961 -160.29068)" fill="#fff"/><path d="M902.81334,671.12924h-9.097a2.23134,2.23134,0,0,1,0-4.46269h9.097a2.23135,2.23135,0,0,1,0,4.46269Z" transform="translate(-87.87961 -160.29068)" fill="#f2f2f2"/><path d="M933.70886,678.16655H893.71632a2.23134,2.23134,0,1,1,0-4.46268h39.99254a2.23134,2.23134,0,1,1,0,4.46268Z" transform="translate(-87.87961 -160.29068)" fill="#f2f2f2"/><path d="M1011.83089,678.61862h-10.41523a3.75037,3.75037,0,0,0-3.75037,3.75037v0a3.75037,3.75037,0,0,1-3.75037,3.75037H959.19178a3.75037,3.75037,0,0,1-3.75037-3.75037l-.68657-3.80187.04463.05149-.04463-.05149-6.2941-8.02425a2.18447,2.18447,0,0,0-1.749-.84963H934.9079a2.22542,2.22542,0,0,0-2.22276,2.22276l-.24373,6.65112H927.979a7.1371,7.1371,0,0,0-7.1371,7.1371V732.188a6.3336,6.3336,0,0,0,6.33359,6.33359h84.65545a6.33967,6.33967,0,0,0,6.33186-6.33359V684.95048A6.33186,6.33186,0,0,0,1011.83089,678.61862Z" transform="translate(-87.87961 -160.29068)" fill="#f2f2f2"/><path d="M954.75828,678.39549H932.68514v-6.65112a2.22542,2.22542,0,0,1,2.22276-2.22276h11.80381a2.18447,2.18447,0,0,1,1.749.84963Z" transform="translate(-87.87961 -160.29068)" fill="#e6e6e6"/><path d="M966.06024,733.40668H929.20385a4.40547,4.40547,0,0,1-4.4005-4.4005V718.92659a4.40548,4.40548,0,0,1,4.4005-4.4005h44.23631a4.40548,4.40548,0,0,1,4.4005,4.4005v2.69967A11.79378,11.79378,0,0,1,966.06024,733.40668Z" transform="translate(-87.87961 -160.29068)" fill="#fff"/><path d="M939.81334,722.12924h-9.097a2.23134,2.23134,0,0,1,0-4.46269h9.097a2.23135,2.23135,0,0,1,0,4.46269Z" transform="translate(-87.87961 -160.29068)" fill="#f2f2f2"/><path d="M970.70886,729.16655H930.71632a2.23134,2.23134,0,1,1,0-4.46268h39.99254a2.23134,2.23134,0,1,1,0,4.46268Z" transform="translate(-87.87961 -160.29068)" fill="#f2f2f2"/><polygon points="758.498 560.728 749.898 560.727 745.807 527.556 758.499 527.556 758.498 560.728" fill="#ffb6b6"/><path d="M820.42014,733.70743a3.658,3.658,0,0,0,3.63479,3.64206h16.18934l.5016-1.03954,2.28993-4.72522.88687,4.72522.19629,1.03954h6.10641l-.08723-1.04682-1.62837-19.5261-2.13-.13084-9.20326-.54522-2.26087-.13813v5.83021C833.20006,723.61726,819.7368,730.51608,820.42014,733.70743Z" transform="translate(-87.87961 -160.29068)" fill="#2f2e41"/><polygon points="900.886 494.306 896.73 501.835 865.712 489.386 871.846 478.274 900.886 494.306" fill="#ffb6b6"/><path d="M987.33051,683.454a3.658,3.658,0,0,0,4.94509-1.42207l7.82377-14.17334-.66768-.94152-3.03016-4.28831,4.5654,1.50711,1.005.33053,2.951-5.346-.95862-.42953-17.88151-8.0107-1.1439,1.8015-4.92495,7.79372-1.21353,1.91258,5.1042,2.81755C984.67294,667.38926,984.20633,682.50994,987.33051,683.454Z" transform="translate(-87.87961 -160.29068)" fill="#2f2e41"/><path d="M860.76723,502.38973l32.49465,13.79742s10.39646,22.195,3.20678,25.37538V600.24l74.22232,42.9546L948.3192,680.56394s-28.716-7.417-28.41613-14.18889,3.61043-9.4503-6.24917-10.31993-15.44473-.14375-15.17656-6.18659-34.8218-37.46371-34.8218-37.46371Z" transform="translate(-87.87961 -160.29068)" fill="#2f2e41"/><path d="M868.55206,513.655l-8.23934-9.25659s-18.50542,30.386-18.43585,36.62747-15.70794,38.42757-15.70794,38.42757L806.60481,694.31374s37.735,8.96984,40.64048,9.21817,7.80519,1.77938,4.72422-4.035,0-5.81432,0-5.81432l1.89331-88.4336,14.68924-60.82419Z" transform="translate(-87.87961 -160.29068)" fill="#2f2e41"/><path d="M864.23125,424.67756l15.77752-3.7866,9.12363,11.19085,0,0a33.87142,33.87142,0,0,1,10.043,31.11678l-8.43795,43.522s15.14642,13.88422,13.25311,21.45743c-3.07071,12.28287-36.93678,1.43612-42.76576,2.29581s-13.40219-8.572-14.66439-13.95378,3.886-18.29869,5.6799-18.00376-4.94942-26.71991-4.94942-26.71991.53172-18.08824,6.84272-23.137a34.934,34.934,0,0,0,9.23793-11.56852Z" transform="translate(-87.87961 -160.29068)" fill="#64a881"/><path d="M795.7316,356.44113a7.32612,7.32612,0,0,0,8.57877,7.134l19.86016,30.64222,9.8262-3.40947-23.85431-36.22177a7.31584,7.31584,0,0,0-14.41082,1.855Z" transform="translate(-87.87961 -160.29068)" fill="#ffb6b6"/><path d="M875.37256,463.26362s7.47908-16.01358,1.79065-23.13108-9.84649-14.35291-13.02961-16.31277-15.87141-24.65389-19.06924-25.33167-.7132-4.35677-5.17836-6.33133-5.74724-1.98925-5.73255-3.27131-10.88821-16.67672-10.88821-16.67672l-11.20713,6.9566L839.43537,435.171Z" transform="translate(-87.87961 -160.29068)" fill="#64a881"/><path d="M717.17645,589.76617H631.94306a8.52334,8.52334,0,0,1,0-17.04668h85.23339a8.52334,8.52334,0,0,1,0,17.04668Z" transform="translate(-87.87961 -160.29068)" fill="#64a881"/><path d="M473.01418,536.90492H406.55706a13.41371,13.41371,0,0,1-13.39861-13.39861V461.33674a13.41371,13.41371,0,0,1,13.39861-13.39861h66.45712a13.41371,13.41371,0,0,1,13.39862,13.39861v62.16957A13.41371,13.41371,0,0,1,473.01418,536.90492Z" transform="translate(-87.87961 -160.29068)" fill="#f2f2f2"/><path d="M591.555,536.90492H525.09785a13.41371,13.41371,0,0,1-13.39861-13.39861V461.33674a13.41371,13.41371,0,0,1,13.39861-13.39861H591.555a13.41371,13.41371,0,0,1,13.39862,13.39861v62.16957A13.41371,13.41371,0,0,1,591.555,536.90492Z" transform="translate(-87.87961 -160.29068)" fill="#f2f2f2"/><path d="M710.09576,536.90492H643.63864A13.41371,13.41371,0,0,1,630.24,523.50631V461.33674a13.41371,13.41371,0,0,1,13.39861-13.39861h66.45712a13.41371,13.41371,0,0,1,13.39862,13.39861v62.16957A13.41371,13.41371,0,0,1,710.09576,536.90492Z" transform="translate(-87.87961 -160.29068)" fill="#f2f2f2"/><path d="M155.00335,717.216a2.80741,2.80741,0,0,1-2.03464-4.86592l.19237-.76477q-.038-.09188-.07644-.18358a7.5391,7.5391,0,0,0-13.90673.05167c-2.27452,5.47811-5.17037,10.96554-5.8834,16.75771a22.30336,22.30336,0,0,0,.39152,7.67061,89.4194,89.4194,0,0,1-8.13413-37.13874,86.307,86.307,0,0,1,.53535-9.6283q.44349-3.93126,1.23055-7.80652a90.45563,90.45563,0,0,1,17.93812-38.33731,24.07267,24.07267,0,0,0,10.0118-10.38735,18.36254,18.36254,0,0,0,1.67-5.0179c-.48738.06393-1.83778-7.3591-1.47017-7.81452-.67924-1.03072-1.895-1.54307-2.63681-2.54885-3.68943-5.00211-8.77253-4.12872-11.42612,2.66875-5.6687,2.861-5.72357,7.60578-2.24528,12.16916,2.2129,2.90325,2.51695,6.83168,4.45862,9.93984-.1998.25572-.40756.50345-.6073.75916a91.04013,91.04013,0,0,0-9.50223,15.05379,37.84589,37.84589,0,0,0-2.25945-17.5787c-2.16268-5.21725-6.21632-9.61123-9.786-14.12154-4.2878-5.41757-13.08033-3.05323-13.83575,3.81439q-.011.09975-.02142.19942.79533.44867,1.55706.95246a3.808,3.808,0,0,1-1.53532,6.92993l-.07765.012a37.88983,37.88983,0,0,0,.99876,5.66515c-4.57949,17.71008,5.30731,24.16047,19.42432,24.45023.31164.15978.61531.31957.92695.47144a92.925,92.925,0,0,0-5.00194,23.53931,88.13663,88.13663,0,0,0,.06393,14.23066l-.024-.16778a23.28917,23.28917,0,0,0-7.95036-13.44763c-6.11822-5.0259-14.76211-6.87667-21.36259-10.9165a4.37072,4.37072,0,0,0-6.69422,4.252q.01328.08819.027.17642a25.57816,25.57816,0,0,1,2.86849,1.38225q.79533.44877,1.55706.95247a3.80809,3.80809,0,0,1-1.53533,6.93l-.07772.01193c-.05591.008-.10387.016-.15972.024a37.92276,37.92276,0,0,0,6.97545,10.92265c2.86344,15.46021,15.162,16.927,28.31753,12.42487h.008a92.89768,92.89768,0,0,0,6.24043,18.21782h22.2928c.08-.24769.15184-.50341.22379-.75114a25.32893,25.32893,0,0,1-6.16855-.36745c1.654-2.02957,3.308-4.07512,4.962-6.10463a1.384,1.384,0,0,0,.10388-.11986c.839-1.03867,1.68595-2.06946,2.52491-3.10816l.00045-.00127a37.1011,37.1011,0,0,0-1.08711-9.45126Z" transform="translate(-87.87961 -160.29068)" fill="#f2f2f2"/><path d="M696.44679,191.29068h-205a15.5,15.5,0,0,1,0-31h205a15.5,15.5,0,0,1,0,31Z" transform="translate(-87.87961 -160.29068)" fill="#64a881"/><path d="M876.01665,216.07631H311.87652a2.46274,2.46274,0,0,1,0-4.92428H876.01665a2.46274,2.46274,0,0,1,0,4.92428Z" transform="translate(-87.87961 -160.29068)" fill="#e6e6e6"/><ellipse cx="252.16984" cy="15.64507" rx="8.45661" ry="8.64507" fill="#3f3d56"/><ellipse cx="281.3836" cy="15.64507" rx="8.45661" ry="8.64507" fill="#3f3d56"/><ellipse cx="310.59735" cy="15.64507" rx="8.45661" ry="8.64507" fill="#3f3d56"/><path d="M431.78838,182.76854a.9967.9967,0,0,1-.71484-.30078l-5.70606-5.833a.99954.99954,0,0,1,0-1.39844l5.70606-5.83252a1,1,0,1,1,1.42969,1.39844l-5.022,5.1333,5.022,5.13379a1,1,0,0,1-.71485,1.69921Z" transform="translate(-87.87961 -160.29068)" fill="#3f3d56"/><path d="M441.37676,182.76854a1,1,0,0,1-.71484-1.69921l5.02148-5.13379-5.02148-5.1333a1,1,0,1,1,1.42968-1.39844l5.70557,5.83252a.99954.99954,0,0,1,0,1.39844l-5.70557,5.833A.99668.99668,0,0,1,441.37676,182.76854Z" transform="translate(-87.87961 -160.29068)" fill="#e6e6e6"/><path d="M817.27541,168.29068a2.19558,2.19558,0,0,0-2.19288,2.19287v10.61426a2.19558,2.19558,0,0,0,2.19288,2.19287h10.61425a2.19557,2.19557,0,0,0,2.19287-2.19287V170.48355a2.19557,2.19557,0,0,0-2.19287-2.19287Z" transform="translate(-87.87961 -160.29068)" fill="#e6e6e6"/><path d="M791.27541,168.29068a2.19558,2.19558,0,0,0-2.19288,2.19287v10.61426a2.19558,2.19558,0,0,0,2.19288,2.19287h10.61425a2.19557,2.19557,0,0,0,2.19287-2.19287V170.48355a2.19557,2.19557,0,0,0-2.19287-2.19287Z" transform="translate(-87.87961 -160.29068)" fill="#e6e6e6"/><path d="M841.77541,168.79068a2.19558,2.19558,0,0,0-2.19288,2.19287v10.61426a2.19558,2.19558,0,0,0,2.19288,2.19287h10.61425a2.19557,2.19557,0,0,0,2.19287-2.19287V170.98355a2.19557,2.19557,0,0,0-2.19287-2.19287Z" transform="translate(-87.87961 -160.29068)" fill="#e6e6e6"/><path d="M582.39285,178.17445h-84.8096a2.67117,2.67117,0,0,1,0-5.34234h84.8096a2.67117,2.67117,0,1,1,0,5.34234Z" transform="translate(-87.87961 -160.29068)" fill="#fff"/><path d="M804.71583,613.12106c-14.33736-19.07035-22.6241-40.3958-22.89565-64.70856a5.246,5.246,0,0,1,3.19206-6.68783l48.86934-17.29129a5.246,5.246,0,0,1,6.68779,3.19207L863.465,592.334a5.246,5.246,0,0,1-3.192,6.68782l-48.86934,17.29129A5.246,5.246,0,0,1,804.71583,613.12106Z" transform="translate(-87.87961 -160.29068)" fill="#e6e6e6"/><path d="M801.549,592.25c-8.62305-8.71867-12.31419-24.26894-14.7194-41.60054a4.91292,4.91292,0,0,1,2.98946-6.26335l41.99908-14.86041a4.91313,4.91313,0,0,1,6.26358,2.98938l20.374,57.58182a4.91312,4.91312,0,0,1-2.98969,6.26343l-26.01755,9.20571A21.88446,21.88446,0,0,1,801.549,592.25Z" transform="translate(-87.87961 -160.29068)" fill="#fff"/><path d="M838.64388,563.5347l-32.71613,11.678a2.08428,2.08428,0,1,1-1.40136-3.92594l32.71612-11.678a2.08428,2.08428,0,0,1,1.40137,3.92594Z" transform="translate(-87.87961 -160.29068)" fill="#64a881"/><path d="M809.28271,561.87848l-7.19755,2.56917a2.08428,2.08428,0,0,1-1.40136-3.92594l7.19755-2.56916a2.08427,2.08427,0,1,1,1.40136,3.92593Z" transform="translate(-87.87961 -160.29068)" fill="#64a881"/><path d="M844.80463,580.79414l-32.71613,11.678a2.08428,2.08428,0,1,1-1.40136-3.92594l32.71613-11.678a2.08428,2.08428,0,0,1,1.40136,3.92594Z" transform="translate(-87.87961 -160.29068)" fill="#64a881"/><path d="M841.72425,572.16442l-32.71613,11.678a2.08428,2.08428,0,0,1-1.40136-3.92594l32.71613-11.678a2.08428,2.08428,0,0,1,1.40136,3.92594Z" transform="translate(-87.87961 -160.29068)" fill="#64a881"/><path d="M837.52611,564.20281A7.32611,7.32611,0,0,1,844.5,555.49338L857.81209,521.491l10.31031,1.36976-16.10621,40.26953a7.31584,7.31584,0,0,1-14.49008,1.0725Z" transform="translate(-87.87961 -160.29068)" fill="#ffb6b6"/><path d="M894.12821,443.57973s10.53838,14.18852,6.39277,22.30215-6.76829,16.03589-9.49374,18.59425-10.60517,27.33581-13.60213,28.64108.17495,4.4113-3.80356,7.24114-5.23158,3.10134-4.96011,4.35441-7.32285,18.52139-7.32285,18.52139l-12.3745-4.56791,15.59034-60.358Z" transform="translate(-87.87961 -160.29068)" fill="#64a881"/><circle cx="778.26457" cy="241.74107" r="16.93931" fill="#ffb6b6"/><path d="M848.33227,399.82108a4.91824,4.91824,0,0,0,3.0506.81478,12.3983,12.3983,0,0,0,.1178-3.93383,15.11109,15.11109,0,0,1,1.43683,3.73208c3.01238-.65764,2.87875-1.55363,5.98257-1.0848a6.35023,6.35023,0,0,1,4.79706,7.95506c.65762-1.43971,3.38912-.78526,3.8499.86223.48041,1.73384-.577,3.48625-1.58923,4.97429-3.6149,5.3191,5.73416,15.12357,2.11926,20.44266l-.5033.60136a54.06488,54.06488,0,0,0,8.9272-5.831,17.47524,17.47524,0,0,1-.243-6.40313,8.16714,8.16714,0,0,0,2.7342,4.48569c10.22792-8.02,22.53115-19.56584,20.2687-22.3678l-6.88462-12.1359c-7.23554-12.74827-24.68636-17.86945-35.49786-7.97048-.2826.26392-.92276.089-1.20773.3668-3.10616.80483-7.08238,2.26307-9.11165,4.746C844.55757,391.56209,845.6773,398.02873,848.33227,399.82108Z" transform="translate(-87.87961 -160.29068)" fill="#2f2e41"/><polygon points="173.56 566.994 183.234 566.993 187.837 529.676 173.558 529.677 173.56 566.994" fill="#a0616a"/><path d="M261.09886,737.37676l29.75045-.00112v-.37624a11.58034,11.58034,0,0,0-11.5797-11.57953h-.00072l-5.4343-4.12274-10.13921,4.12337-2.597.00009Z" transform="translate(-87.87961 -160.29068)" fill="#2f2e41"/><polygon points="215.62 520.746 224.557 524.451 243.104 491.744 229.914 486.275 215.62 520.746" fill="#a0616a"/><path d="M299.319,690.22821l27.48141,11.39568.14413-.34754a11.58032,11.58032,0,0,0-6.26051-15.13211l-.00066-.00028-3.44042-5.89-10.94532-.07528-2.399-.99477Z" transform="translate(-87.87961 -160.29068)" fill="#2f2e41"/><path d="M250.37794,515.00643l68.65812,7.17324,9.18415,30.93271L360.026,604.22569s-22.19352,37.3543-20.10976,36.94739-2.0814,9.77545-4.99881,9.18427-5.95114,6.048-3.93428,7.22839-6.075,11.16148-6.075,11.16148L312.54071,657.6466c-2.63065-19.84259.54767-37.5025,11.87134-52.10186L288.97894,567.292l-6.71872-2.78791h0l-5.33346,141.9468-19.72672.324c-5.44319-28.001-8.17766-53.20264-3.92306-71.181,0,0-.61121-54.00877-2.9441-53.41821s-.35523-6.44533-.35523-6.44533,2.04312-5.99227-.46726-8.47819-.94283-17.10681-.94283-17.10681C244.41972,536.30861,245.66826,524.884,250.37794,515.00643Z" transform="translate(-87.87961 -160.29068)" fill="#2f2e41"/><path d="M275.55017,417.08114l11.26937-12.68924,17.807,1.97855,11.40058,15.9549h0a24.33934,24.33934,0,0,1,18.52819,27.87941c-4.4241,25.475-19.459,50.18273-14.49451,62.75218,7.53592,19.08011,7.99573,26.86184-10.04336,24.18682s-78.47367-8.84182-66.75676-20.55873,14.29049-31.29629,14.29049-31.29629l.46986-44.79438a19.90866,19.90866,0,0,1,17.52911-23.41321Z" transform="translate(-87.87961 -160.29068)" fill="#3f3d56"/><circle cx="209.69294" cy="221.08739" r="19.76671" fill="#a0616a"/><path d="M273.217,380.20432a34.37485,34.37485,0,0,0,4.70135,11.26373,7.66708,7.66708,0,0,0,2.56439,2.91161,2.80287,2.80287,0,0,0,3.56165-.44521l.48086-.39178a10.20139,10.20139,0,0,1-2.4932-2.16369,3.474,3.474,0,0,1-.66781-3.10753,2.13908,2.13908,0,0,1,2.61781-1.398c1.15758.45412,1.861,2.1281,3.07194,1.8699.97948-.21374,1.18426-1.5048,1.18426-2.51988-.0356-5.30687,2.52879-12.84864,4.5144-12.61712a16.01094,16.01094,0,0,0,5.9212-.79248,15.51323,15.51323,0,0,1,5.93018-.75688c.14244.01782.28493.04456.43629.07124a13.13109,13.13109,0,0,1,1.31779-2.876,15.36456,15.36456,0,0,0,.16027,3.25888,30.47966,30.47966,0,0,0,4.93292,1.55823c1.83424.25825,5.86778,5.74316,6.05479,5.1822a13.13088,13.13088,0,0,1,1.31779-2.876,15.36393,15.36393,0,0,0,.16027,3.25888c.00891.04451.00891.08016.01782.12467.89041-1.18426,1.43355-2.62673,1.13084-1.52262,2.98286-6.74929,1.82534-11.58422-2.86715-17.274a9.02316,9.02316,0,0,0-3.51709-2.82265,4.43526,4.43526,0,0,0-4.32744.42744,14.55945,14.55945,0,0,0-14.44245-3.08085c-4.88836,1.70072-8.65484,2.698-9.40275,7.82676-4.04251-.65-8.20072,1.64724-10.42675,5.0753A16.43419,16.43419,0,0,0,273.217,380.20432Z" transform="translate(-87.87961 -160.29068)" fill="#2f2e41"/><path d="M359.83089,480.61862H349.41566a3.75037,3.75037,0,0,0-3.75037,3.75037v0a3.75037,3.75037,0,0,1-3.75037,3.75037H307.19178a3.75037,3.75037,0,0,1-3.75037-3.75037l-.68657-3.80187.04463.05149-.04463-.05149-6.2941-8.02425a2.18447,2.18447,0,0,0-1.749-.84963H282.9079a2.22542,2.22542,0,0,0-2.22276,2.22276l-.24373,6.65112H275.979a7.1371,7.1371,0,0,0-7.1371,7.1371V534.188a6.3336,6.3336,0,0,0,6.33359,6.33359h84.65545a6.33967,6.33967,0,0,0,6.33186-6.33359V486.95048A6.33186,6.33186,0,0,0,359.83089,480.61862Z" transform="translate(-87.87961 -160.29068)" fill="#e6e6e6"/><path d="M302.75828,480.39549H280.68514v-6.65112a2.22542,2.22542,0,0,1,2.22276-2.22276h11.80381a2.18447,2.18447,0,0,1,1.749.84963Z" transform="translate(-87.87961 -160.29068)" fill="#e6e6e6"/><path d="M314.06024,535.40668H277.20385a4.40547,4.40547,0,0,1-4.4005-4.4005V520.92659a4.40548,4.40548,0,0,1,4.4005-4.4005h44.23631a4.40548,4.40548,0,0,1,4.4005,4.4005v2.69967A11.79378,11.79378,0,0,1,314.06024,535.40668Z" transform="translate(-87.87961 -160.29068)" fill="#fff"/><path d="M287.81334,524.12924h-9.097a2.23135,2.23135,0,0,1,0-4.46269h9.097a2.23135,2.23135,0,0,1,0,4.46269Z" transform="translate(-87.87961 -160.29068)" fill="#f2f2f2"/><path d="M318.70886,531.16655H278.71632a2.23134,2.23134,0,1,1,0-4.46268h39.99254a2.23134,2.23134,0,1,1,0,4.46268Z" transform="translate(-87.87961 -160.29068)" fill="#f2f2f2"/><path d="M347.62192,448.50941l-8.36121,13.90433c6.25793,8.53458,16.783,19.70827,16.783,19.70827l-20.09784,9.2782a7.99935,7.99935,0,1,0-.08589,11.34713l.02725.31988c-.2932-1.46507,12.61145-2.55237,28.027-6.84767,11.07188-3.08508,14.34075-22.009,13.323-22.34942l-7.4718-13.104Z" transform="translate(-87.87961 -160.29068)" fill="#a0616a"/><path d="M305.54523,433.537l0,0a17.118,17.118,0,0,1,26.08971-3.67259l7.57644,6.89456s28.73854,18.29717,33.55408,28.00728l-20,17s-4.88581-12.40349-12.61228-12.35487c-4.73185.02978-18.5296-5.90231-29.0719-12.34464A17.07421,17.07421,0,0,1,305.54523,433.537Z" transform="translate(-87.87961 -160.29068)" fill="#3f3d56"/><path d="M549.1084,559.76617H524.51157a5.79732,5.79732,0,0,1-5.27117-3.39c-4.744-10.40971-3.46008-20.678.28922-30.8884a5.73908,5.73908,0,0,1,5.40149-3.72158h23.89871a5.77093,5.77093,0,0,1,5.311,8.03985c-2.95979,6.89263-3.048,14.18449.29647,21.9536A5.766,5.766,0,0,1,549.1084,559.76617Z" transform="translate(-87.87961 -160.29068)" fill="#fff"/><path d="M549.1084,560.26617H524.51172a6.308,6.308,0,0,1-5.72656-3.68261c-4.23389-9.292-4.14649-19.22754.27539-31.26856a6.25154,6.25154,0,0,1,5.8706-4.04883h23.89844a6.27068,6.27068,0,0,1,5.77051,8.73731c-2.977,6.93359-2.877,14.18652.29687,21.55859a6.18877,6.18877,0,0,1-.52588,5.86426A6.28441,6.28441,0,0,1,549.1084,560.26617Zm-24.17725-38a5.2491,5.2491,0,0,0-4.93213,3.39453c-4.32519,11.77735-4.42187,21.47168-.30371,30.50879a5.30616,5.30616,0,0,0,4.81641,3.09668H549.1084a5.289,5.289,0,0,0,4.42773-2.38965,5.12521,5.12521,0,0,0,.4419-4.91992c-3.28662-7.63281-3.38623-15.15234-.29688-22.34765a5.27027,5.27027,0,0,0-4.85156-7.34278Z" transform="translate(-87.87961 -160.29068)" fill="#ccc"/><path d="M544,535.26617H527a2.5,2.5,0,0,1,0-5h17a2.5,2.5,0,0,1,0,5Z" transform="translate(-87.87961 -160.29068)" fill="#e6e6e6"/><path d="M544,544.76617H527a2.5,2.5,0,0,1,0-5h17a2.5,2.5,0,0,1,0,5Z" transform="translate(-87.87961 -160.29068)" fill="#e6e6e6"/><path d="M544,554.26617H527a2.5,2.5,0,0,1,0-5h17a2.5,2.5,0,0,1,0,5Z" transform="translate(-87.87961 -160.29068)" fill="#e6e6e6"/><path d="M725.1084,618.76617H700.51157a5.79732,5.79732,0,0,1-5.27117-3.39c-4.744-10.40971-3.46008-20.678.28922-30.8884a5.73908,5.73908,0,0,1,5.40149-3.72158h23.89871a5.77093,5.77093,0,0,1,5.311,8.03985c-2.95979,6.89263-3.048,14.18449.29647,21.9536A5.766,5.766,0,0,1,725.1084,618.76617Z" transform="translate(-87.87961 -160.29068)" fill="#fff"/><path d="M725.1084,619.26617H700.51172a6.308,6.308,0,0,1-5.72656-3.68261c-4.23389-9.292-4.14649-19.22754.27539-31.26856a6.25154,6.25154,0,0,1,5.8706-4.04883h23.89844a6.27068,6.27068,0,0,1,5.77051,8.73731c-2.977,6.93359-2.877,14.18652.29687,21.55859a6.18877,6.18877,0,0,1-.52588,5.86426A6.28441,6.28441,0,0,1,725.1084,619.26617Zm-24.17725-38a5.2491,5.2491,0,0,0-4.93213,3.39453c-4.32519,11.77735-4.42187,21.47168-.30371,30.50879a5.30616,5.30616,0,0,0,4.81641,3.09668H725.1084a5.289,5.289,0,0,0,4.42773-2.38965,5.12521,5.12521,0,0,0,.4419-4.91992c-3.28662-7.63281-3.38623-15.15234-.29688-22.34765a5.27027,5.27027,0,0,0-4.85156-7.34278Z" transform="translate(-87.87961 -160.29068)" fill="#ccc"/><path d="M720,594.26617H703a2.5,2.5,0,0,1,0-5h17a2.5,2.5,0,0,1,0,5Z" transform="translate(-87.87961 -160.29068)" fill="#e6e6e6"/><path d="M720,603.76617H703a2.5,2.5,0,0,1,0-5h17a2.5,2.5,0,0,1,0,5Z" transform="translate(-87.87961 -160.29068)" fill="#e6e6e6"/><path d="M720,613.26617H703a2.5,2.5,0,0,1,0-5h17a2.5,2.5,0,0,1,0,5Z" transform="translate(-87.87961 -160.29068)" fill="#e6e6e6"/><path d="M272.71583,621.12106c-14.33736-19.07035-22.6241-40.3958-22.89565-64.70856a5.246,5.246,0,0,1,3.19206-6.68783l48.86934-17.29129a5.246,5.246,0,0,1,6.68779,3.19207L331.465,600.334a5.246,5.246,0,0,1-3.192,6.68782l-48.86934,17.29129A5.246,5.246,0,0,1,272.71583,621.12106Z" transform="translate(-87.87961 -160.29068)" fill="#e6e6e6"/><path d="M269.549,600.25c-8.623-8.71867-12.31419-24.26894-14.7194-41.60054a4.91292,4.91292,0,0,1,2.98946-6.26335l41.99908-14.86041a4.91313,4.91313,0,0,1,6.26358,2.98938l20.374,57.58182a4.91312,4.91312,0,0,1-2.98969,6.26343l-26.01755,9.20571A21.88446,21.88446,0,0,1,269.549,600.25Z" transform="translate(-87.87961 -160.29068)" fill="#fff"/><path d="M306.64388,571.5347l-32.71613,11.678a2.08428,2.08428,0,1,1-1.40136-3.92594l32.71612-11.678a2.08428,2.08428,0,0,1,1.40137,3.92594Z" transform="translate(-87.87961 -160.29068)" fill="#64a881"/><path d="M277.28271,569.87848l-7.19755,2.56917a2.08428,2.08428,0,0,1-1.40136-3.92594l7.19755-2.56916a2.08427,2.08427,0,1,1,1.40136,3.92593Z" transform="translate(-87.87961 -160.29068)" fill="#64a881"/><path d="M312.80463,588.79414l-32.71613,11.678a2.08428,2.08428,0,1,1-1.40136-3.92594l32.71613-11.678a2.08428,2.08428,0,0,1,1.40136,3.92594Z" transform="translate(-87.87961 -160.29068)" fill="#64a881"/><path d="M309.72425,580.16442l-32.71613,11.678a2.08428,2.08428,0,0,1-1.40136-3.92594l32.71613-11.678a2.08428,2.08428,0,0,1,1.40136,3.92594Z" transform="translate(-87.87961 -160.29068)" fill="#64a881"/><path d="M261.8374,465.44207l16.0607-2.30042c5.43183,9.08278,7.3621,33.25826,7.3621,33.25826l15.71789,37.35851a7.16306,7.16306,0,1,1-11.16692,5.38L264.004,495.65468Z" transform="translate(-87.87961 -160.29068)" fill="#a0616a"/><path d="M270.54225,420.85411l0,0a17.118,17.118,0,0,0-13.523,22.61172l3.40825,9.66028s-4.29326,29.08717,2.78218,37.29777l21.71115-1.96534s-3.9695-14.67491-.922-21.77515c1.86635-4.34834,1.76268-19.36689-.07627-31.58417C282.51832,425.77029,279.86514,419.41029,270.54225,420.85411Z" transform="translate(-87.87961 -160.29068)" fill="#3f3d56"/><path d="M1110.9297,739.70932l-1021.75-.69267a1.19068,1.19068,0,1,1,0-2.38136l1021.75.69266a1.19069,1.19069,0,1,1,0,2.38137Z" transform="translate(-87.87961 -160.29068)" fill="#cacaca"/></svg>